<?xml version="1.0" encoding="utf-8"?>
<!-- Generator: Adobe Illustrator 16.0.0, SVG Export Plug-In . SVG Version: 6.00 Build 0)  -->
<!DOCTYPE svg PUBLIC "-//W3C//DTD SVG 1.1//EN" "http://www.w3.org/Graphics/SVG/1.1/DTD/svg11.dtd">
<svg version="1.1" id="レイヤー_1" xmlns="http://www.w3.org/2000/svg" xmlns:xlink="http://www.w3.org/1999/xlink" x="0px"
	 y="0px" width="146.281px" height="138.843px" viewBox="0 0 146.281 138.843" enable-background="new 0 0 146.281 138.843"
	 xml:space="preserve">
<g>
	<g>
		<g>
			
				<linearGradient id="SVGID_1_" gradientUnits="userSpaceOnUse" x1="50.3237" y1="33.8794" x2="96.3271" y2="33.8794" gradientTransform="matrix(0.3089 0.9511 -0.9511 0.3089 118.1006 -20.7685)">
				<stop  offset="0" style="stop-color:#FFFFFF;stop-opacity:0"/>
				<stop  offset="1" style="stop-color:#000000;stop-opacity:0"/>
			</linearGradient>
			<path stroke="url(#SVGID_1_)" stroke-miterlimit="10" d="M126.695,77.193c-5.621,1.844-16.787,1.234-27.889-1.824
				c-11.023-3.036-17.689-7.17-17.582-7.067c-0.026,0.146,2.938-7.116,10.075-16.048c7.187-8.999,15.865-16.053,21.495-17.862
				c5.837-1.959,12.436-1.859,17.268,1.243c4.577,3.075-1.188,10.102,0.807,16.544c2.171,6.387,10.965,8.685,9.068,13.862
				C137.85,71.392,132.569,75.348,126.695,77.193z"/>
			
				<linearGradient id="SVGID_2_" gradientUnits="userSpaceOnUse" x1="50.3237" y1="33.8794" x2="96.3271" y2="33.8794" gradientTransform="matrix(0.3089 0.9511 -0.9511 0.3089 118.1006 -20.7685)">
				<stop  offset="0" style="stop-color:#FFFFFF;stop-opacity:0"/>
				<stop  offset="1" style="stop-color:#000000;stop-opacity:0"/>
			</linearGradient>
			<path stroke="url(#SVGID_2_)" stroke-miterlimit="10" d="M126.695,77.193c-5.621,1.844-16.787,1.234-27.889-1.824
				c-11.023-3.036-17.689-7.17-17.582-7.067c-0.026,0.146,2.938-7.116,10.075-16.048c7.187-8.999,15.865-16.053,21.495-17.862
				c5.837-1.959,12.436-1.859,17.268,1.243c4.577,3.075-1.188,10.102,0.807,16.544c2.171,6.387,10.965,8.685,9.068,13.862
				C137.85,71.392,132.569,75.348,126.695,77.193z"/>
		</g>
	</g>
	<g>
		<g>
			
				<linearGradient id="SVGID_3_" gradientUnits="userSpaceOnUse" x1="50.3228" y1="33.8794" x2="96.3262" y2="33.8794" gradientTransform="matrix(-0.8091 0.5877 -0.5877 -0.8091 174.3358 85.1224)">
				<stop  offset="0" style="stop-color:#FFFFFF;stop-opacity:0"/>
				<stop  offset="1" style="stop-color:#000000;stop-opacity:0"/>
			</linearGradient>
			<path stroke="url(#SVGID_3_)" stroke-miterlimit="10" d="M83.827,123.572c-3.491-4.775-6.361-15.584-6.884-27.087
				c-0.52-11.421,1.352-19.039,1.287-18.905c-0.147,0.02,7.675,0.595,18.376,4.622c10.779,4.054,20.17,10.127,23.63,14.923
				c3.667,4.946,5.611,11.252,4.155,16.807c-1.51,5.303-9.975,1.991-15.485,5.88c-5.403,4.038-4.871,13.112-10.38,12.908
				C92.792,132.387,87.397,128.588,83.827,123.572z"/>
			
				<linearGradient id="SVGID_4_" gradientUnits="userSpaceOnUse" x1="50.3228" y1="33.8794" x2="96.3262" y2="33.8794" gradientTransform="matrix(-0.8091 0.5877 -0.5877 -0.8091 174.3358 85.1224)">
				<stop  offset="0" style="stop-color:#FFFFFF;stop-opacity:0"/>
				<stop  offset="1" style="stop-color:#000000;stop-opacity:0"/>
			</linearGradient>
			<path stroke="url(#SVGID_4_)" stroke-miterlimit="10" d="M83.827,123.572c-3.491-4.775-6.361-15.584-6.884-27.087
				c-0.52-11.421,1.352-19.039,1.287-18.905c-0.147,0.02,7.675,0.595,18.376,4.622c10.779,4.054,20.17,10.127,23.63,14.923
				c3.667,4.946,5.611,11.252,4.155,16.807c-1.51,5.303-9.975,1.991-15.485,5.88c-5.403,4.038-4.871,13.112-10.38,12.908
				C92.792,132.387,87.397,128.588,83.827,123.572z"/>
		</g>
	</g>
	<g>
		<g>
			
				<linearGradient id="SVGID_5_" gradientUnits="userSpaceOnUse" x1="50.3237" y1="33.8789" x2="96.3267" y2="33.8789" gradientTransform="matrix(-0.809 -0.5878 0.5878 -0.809 91.0088 171.3323)">
				<stop  offset="0" style="stop-color:#FFFFFF;stop-opacity:0"/>
				<stop  offset="1" style="stop-color:#000000;stop-opacity:0"/>
			</linearGradient>
			<path stroke="url(#SVGID_5_)" stroke-miterlimit="10" d="M26.471,97.135c3.462-4.796,12.854-10.866,23.633-14.918
				c10.702-4.024,18.525-4.598,18.377-4.619c-0.064-0.134,1.806,7.483,1.284,18.905c-0.524,11.504-3.397,22.312-6.889,27.085
				c-3.57,5.017-8.967,8.813-14.7,9.146c-5.51,0.203-4.976-8.871-10.377-12.91c-5.511-3.891-13.976-0.58-15.484-5.883
				C20.857,108.386,22.802,102.081,26.471,97.135z"/>
			
				<linearGradient id="SVGID_6_" gradientUnits="userSpaceOnUse" x1="50.3237" y1="33.8789" x2="96.3267" y2="33.8789" gradientTransform="matrix(-0.809 -0.5878 0.5878 -0.809 91.0088 171.3323)">
				<stop  offset="0" style="stop-color:#FFFFFF;stop-opacity:0"/>
				<stop  offset="1" style="stop-color:#000000;stop-opacity:0"/>
			</linearGradient>
			<path stroke="url(#SVGID_6_)" stroke-miterlimit="10" d="M26.471,97.135c3.462-4.796,12.854-10.866,23.633-14.918
				c10.702-4.024,18.525-4.598,18.377-4.619c-0.064-0.134,1.806,7.483,1.284,18.905c-0.524,11.504-3.397,22.312-6.889,27.085
				c-3.57,5.017-8.967,8.813-14.7,9.146c-5.51,0.203-4.976-8.871-10.377-12.91c-5.511-3.891-13.976-0.58-15.484-5.883
				C20.857,108.386,22.802,102.081,26.471,97.135z"/>
		</g>
	</g>
	<g>
		<g>
			
				<linearGradient id="SVGID_7_" gradientUnits="userSpaceOnUse" x1="50.3247" y1="33.8823" x2="96.3276" y2="33.8823" gradientTransform="matrix(0.3091 -0.951 0.951 0.3091 -16.7344 118.726)">
				<stop  offset="0" style="stop-color:#FFFFFF;stop-opacity:0"/>
				<stop  offset="1" style="stop-color:#000000;stop-opacity:0"/>
			</linearGradient>
			<path stroke="url(#SVGID_7_)" stroke-miterlimit="10" d="M33.887,34.417c5.631,1.81,14.307,8.867,21.492,17.865
				c7.135,8.934,10.098,16.197,10.072,16.05c0.108-0.103-6.559,4.03-17.583,7.063c-11.103,3.057-22.27,3.665-27.889,1.819
				c-5.875-1.845-11.153-5.804-13.241-11.154c-1.896-5.177,6.899-7.474,9.071-13.859c1.997-6.443-3.768-13.471,0.809-16.544
				C21.452,32.555,28.049,32.457,33.887,34.417z"/>
			
				<linearGradient id="SVGID_8_" gradientUnits="userSpaceOnUse" x1="50.3247" y1="33.8823" x2="96.3276" y2="33.8823" gradientTransform="matrix(0.3091 -0.951 0.951 0.3091 -16.7344 118.726)">
				<stop  offset="0" style="stop-color:#FFFFFF;stop-opacity:0"/>
				<stop  offset="1" style="stop-color:#000000;stop-opacity:0"/>
			</linearGradient>
			<path stroke="url(#SVGID_8_)" stroke-miterlimit="10" d="M33.887,34.417c5.631,1.81,14.307,8.867,21.492,17.865
				c7.135,8.934,10.098,16.197,10.072,16.05c0.108-0.103-6.559,4.03-17.583,7.063c-11.103,3.057-22.27,3.665-27.889,1.819
				c-5.875-1.845-11.153-5.804-13.241-11.154c-1.896-5.177,6.899-7.474,9.071-13.859c1.997-6.443-3.768-13.471,0.809-16.544
				C21.452,32.555,28.049,32.457,33.887,34.417z"/>
		</g>
	</g>
	<g>
		<g>
			<linearGradient id="SVGID_9_" gradientUnits="userSpaceOnUse" x1="50.3247" y1="33.8813" x2="96.3276" y2="33.8813">
				<stop  offset="0" style="stop-color:#FFFFFF;stop-opacity:0"/>
				<stop  offset="1" style="stop-color:#000000;stop-opacity:0"/>
			</linearGradient>
			<path stroke="url(#SVGID_9_)" stroke-miterlimit="10" d="M95.826,22.086c0.019,5.915-4.011,16.347-10.349,25.961
				c-6.292,9.547-12.283,14.609-12.151,14.539c0.131,0.071-5.86-4.992-12.151-14.539c-6.338-9.614-10.368-20.046-10.349-25.961
				c-0.061-6.157,2.072-12.401,6.516-16.04c4.338-3.403,9.24,4.251,15.984,4.344c6.745-0.092,11.646-7.747,15.984-4.344
				C93.754,9.686,95.887,15.929,95.826,22.086z"/>
			<linearGradient id="SVGID_10_" gradientUnits="userSpaceOnUse" x1="50.3247" y1="33.8813" x2="96.3276" y2="33.8813">
				<stop  offset="0" style="stop-color:#FFFFFF;stop-opacity:0"/>
				<stop  offset="1" style="stop-color:#000000;stop-opacity:0"/>
			</linearGradient>
			<path stroke="url(#SVGID_10_)" stroke-miterlimit="10" d="M95.826,22.086c0.019,5.915-4.011,16.347-10.349,25.961
				c-6.292,9.547-12.283,14.609-12.151,14.539c0.131,0.071-5.86-4.992-12.151-14.539c-6.338-9.614-10.368-20.046-10.349-25.961
				c-0.061-6.157,2.072-12.401,6.516-16.04c4.338-3.403,9.24,4.251,15.984,4.344c6.745-0.092,11.646-7.747,15.984-4.344
				C93.754,9.686,95.887,15.929,95.826,22.086z"/>
		</g>
	</g>
</g>
</svg>
